PathFileType	4	(X/Y/Z)	C:/Users/beibeiliu/ov580/test_trc/User3\sequence.8_training_dense_left.trc
DataRate	CameraRate	NumFrames	NumMarkers	Units	OrigDataRate	OrigDataStartFrame	OrigNumFrames
120	120	11	19	mm	120	1	81
Frame#	Time	ThumbCMC			ThumbMCP			ThumbIP			ThumbTip			IndexMCP			IndexPIP			IndexTip			MiddleMCP			MiddlePIP			MiddleTip			RingMCP			RingPIP			RingTip			PinkyMCP			PinkyPIP			PinkyTip			BackHand1			BackHand2			BackHand3	
		X0	Y0	Z0	X1	Y1	Z1	X2	Y2	Z2	X3	Y3	Z3	X4	Y4	Z4	X5	Y5	Z5	X6	Y6	Z6	X7	Y7	Z7	X8	Y8	Z8	X9	Y9	Z9	X10	Y10	Z10	X11	Y11	Z11	X12	Y12	Z12	X13	Y13	Z13	X14	Y14	Z14	X15	Y15	Z15	X16	Y16	Z16	X17	Y17	Z17	X18	Y18	Z18	
0	0	-90.6023	12.0426	2.34392	-71.4938	8.45004	-19.6266	-50.7346	8.47124	-42.3279	-38.9053	5.00122	-65.4758	-110.195	35.071	-72.3505	-100.216	35.083	-98.6038	-92.4575	27.6072	-128.726	-134.976	34.7109	-78.7545	-134.316	34.0036	-109.11	-131.644	20.6447	-140.129	-153.481	24.3485	-74.4435	-157.244	23.1886	-97.9551	-158.674	11.2054	-124.633	-174.097	7.8349	-60.5199	-178.354	4.14278	-80.13	-177.368	-3.77519	-105.357	-154.773	27.5445	-21.9363	-156.007	21.5731	12.537	-123.984	32.387	-5.85328	
1	0.00833333	-92.2147	13.7265	-0.564256	-70.8709	11.5863	-21.0182	-55.8613	9.21671	-44.0609	-40.0212	5.48171	-65.6572	-110.801	35.9365	-75.0226	-101.733	34.7346	-104.152	-94.8291	25.2961	-130.49	-134.811	35.8229	-82.2098	-134.059	34.7084	-107.442	-132.77	20.7182	-140.812	-158.275	24.3615	-72.8725	-156.791	23.2523	-98.831	-158.689	9.72972	-129.706	-171.488	8.88144	-57.0535	-179.251	4.48488	-85.3732	-181.159	-2.91779	-104.789	-156.801	27.0062	-19.1551	-155.502	25.6533	9.41161	-123.208	33.9631	-8.58424	
2	0.0166667	-92.4508	13.5785	0.781241	-73.0188	11.1553	-19.2202	-52.1021	10.2406	-46.9674	-42.6439	5.34755	-62.2653	-105.353	36.5457	-78.5136	-102.06	34.3172	-102.427	-91.3991	26.8225	-126.658	-137.377	35.6022	-79.3613	-134.611	34.1822	-108.943	-130.364	22.5627	-139.782	-153.21	25.5363	-71.4988	-157.182	22.025	-103.35	-159.704	9.79652	-128.736	-173.425	10.4226	-58.3951	-179.538	5.00492	-83.2794	-178.992	-3.83518	-104.405	-157.642	28.4328	-19.9666	-154.577	25.1546	8.46835	-124.618	33.642	-6.33211	
3	0.025	-88.6734	14.9976	-3.48801	-72.7599	10.7087	-22.4114	-53.3919	8.94029	-45.2078	-40.7962	4.37001	-60.4274	-106.955	35.1349	-78.338	-95.9911	33.7337	-105.218	-95.2138	25.3929	-126.243	-134.089	34.8887	-78.243	-133.984	32.9214	-111.279	-131.986	20.2939	-140.491	-151.952	25.4172	-74.4144	-156.664	21.5541	-102.357	-156.396	12.1296	-124.894	-167.788	9.88289	-57.6241	-174.824	7.44866	-83.5197	-179.095	-2.30765	-105.519	-155.027	27.7009	-23.4224	-157.809	24.5648	7.10023	-122.645	34.3994	-9.46966	
4	0.0333333	-92.4488	12.0544	-0.186302	-70.7403	10.2073	-23.8592	-50.3188	8.00759	-43.2015	-37.2558	3.89092	-61.5185	-103.994	34.7382	-74.5096	-97.507	33.738	-100.518	-89.6771	25.8732	-125.542	-131.576	35.8838	-83.6795	-130.321	31.0671	-113.398	-128.763	20.3964	-139.336	-155.421	22.0556	-73.5614	-154.479	20.7435	-103.921	-156.438	7.49625	-128.569	-172.48	7.58642	-59.8285	-172.647	6.04073	-82.1236	-177.824	-4.28571	-105.777	-155.48	27.9185	-22.5436	-151.877	25.7673	5.74776	-122.644	32.3875	-9.70989	
5	0.0416667	-91.1456	11.5233	-3.72905	-71.325	8.64963	-22.66	-51.9475	6.87786	-46.8543	-36.3778	2.19258	-62.1801	-102.641	32.5155	-72.9489	-99.0276	30.2203	-104.448	-89.7898	23.4092	-125.223	-134.592	32.1404	-82.4033	-130.615	30.51	-110.427	-131.11	17.0308	-139.653	-155.336	20.5	-73.2047	-156.818	17.9658	-102.897	-157.879	7.10699	-125.331	-169.941	7.76226	-58.7834	-172.796	4.87762	-79.782	-177.049	-7.73905	-103.61	-151.244	26.4367	-18.8752	-153.22	23.013	7.9991	-118.592	31.3588	-8.13967	
6	0.05	-88.2778	11.4073	-3.03193	-68.1249	7.75702	-22.8086	-52.9368	2.70426	-42.6733	-38.7099	-0.301665	-61.0284	-105.391	30.4359	-78.7199	-95.4077	28.7116	-100.199	-91.4775	20.8878	-126.004	-134.879	30.2769	-83.1439	-129.987	28.9767	-108.284	-129.266	16.2422	-142.024	-150.533	19.8374	-71.1597	-156.029	17.1484	-99.7386	-155.827	6.60782	-129.099	-172.453	5.50536	-58.456	-176.255	0.803371	-84.1803	-179.184	-9.47593	-104.213	-149.092	24.0779	-19.1388	-153.813	22.8378	9.55157	-121.175	31.3733	-7.05168	
7	0.0583333	-87.8658	10.36	0.70628	-68.5044	5.33752	-20.47	-47.8188	3.01288	-45.517	-33.6678	-2.11399	-59.0387	-103.816	27.2669	-78.7307	-93.7068	23.7511	-105.875	-92.135	18.1341	-127.537	-132.923	27.3977	-84.0388	-131.497	24.9606	-109.82	-127.73	13.239	-145.252	-151.534	18.2822	-72.6903	-160.838	14.1938	-99.2692	-162.874	5.50285	-124.431	-174.35	4.9703	-59.8273	-178.635	-0.723442	-78.5966	-185.116	-12.8061	-103.552	-153.426	24.0319	-19.6925	-152.157	24.7456	6.88869	-116.824	32.275	-9.86158	
8	0.0666667	-87.7479	7.62745	-2.84961	-69.0349	2.63616	-23.3826	-50.9086	-0.953465	-43.3589	-32.5569	-4.4034	-60.582	-103.398	21.4056	-77.5773	-94.498	18.617	-106.989	-86.1157	13.1576	-131.18	-132.004	23.3493	-81.679	-134.561	20.1415	-113.445	-131.801	12.1701	-143.015	-155.018	15.2805	-74.1745	-162.706	12.0205	-97.7757	-164.799	4.68249	-126.134	-175.26	2.69704	-54.0852	-181.912	-2.54858	-74.6959	-193.451	-11.653	-97.1598	-149.848	23.7463	-22.4896	-150.961	25.1501	8.98016	-116.929	27.9451	-10.665	
9	0.075	-91.3526	6.23998	-2.01692	-66.9424	2.30824	-21.8567	-47.3303	-0.238922	-39.0584	-34.7026	-6.22853	-55.2032	-103.561	14.7969	-80.0125	-99.0057	12.6229	-103.077	-91.4574	10.1275	-128.957	-132.501	18.212	-85.4826	-132.438	15.437	-111.924	-133.765	9.28095	-141.775	-154.719	11.2462	-76.5045	-166.463	7.97915	-95.2051	-170.988	2.05429	-122.68	-173.672	0.253765	-54.162	-188.135	-6.92147	-74.1758	-198.409	-12.8286	-92.5508	-153.532	22.9217	-23.1287	-151.516	26.6734	3.202	-116.65	26.6676	-12.2216	
10	0.0833333	-92.5836	5.78097	-5.76037	-72.7035	1.43336	-23.1594	-51.4166	-1.25109	-42.5252	-33.2799	-3.4293	-55.1472	-109.462	6.7752	-83.3476	-99.5966	3.74762	-104.577	-94.7362	2.75808	-131.546	-138.364	9.86656	-89.0158	-137.962	5.9381	-111.625	-142.566	2.75529	-141.576	-164.837	2.83985	-74.1241	-170.457	0.649292	-95.5963	-176.155	-2.25169	-123.603	-178.486	-5.50001	-54.3161	-192.959	-11.5929	-72.1427	-205.389	-17.0247	-88.8698	-156.692	19.1854	-25.0257	-153.917	23.501	-0.263641	-122.155	24.2124	-16.3526	
